DataType=double
version=3
OpenSimVersion=4.4-2022-10-11-798caa840
endheader
time	ground_force_r_vx	ground_force_r_vy	ground_force_r_vz	ground_force_r_px	ground_force_r_py	ground_force_r_pz	ground_force_l_vx	ground_force_l_vy	ground_force_l_vz	ground_force_l_px	ground_force_l_py	ground_force_l_pz	ground_torque_r_x	ground_torque_r_y	ground_torque_r_z	ground_torque_l_x	ground_torque_l_y	ground_torque_l_z
3.655	-49.86119466587243	647.5800777463334	-35.0790375723701	1.337885196852187	0	-0.4203792341913972	-0.004422309427658078	0.001557574433485377	6.351586909974899e-07	1.112319255476899	0	-0.5601952649834127	0	0.6687693930527843	0	0	-3.872712561877809e-15	0
3.66	-47.87627985147456	636.3126584844429	-33.30296293951578	1.33970392186365	0	-0.4205416875437764	-0.005642298650544707	0.001959900193062609	2.540265319947932e-06	1.132149015592267	0	-0.5601103543170791	0	0.83882435801398	0	0	-7.937707955529448e-15	0
3.665	-45.90538271784249	625.7431800612408	-31.74869111038878	1.341540271062104	0	-0.4207134275475989	-0.007526109625995636	0.002582116216259523	5.104150638391149e-06	1.152091323059264	0	-0.5600199462599847	0	1.000606312116723	0	0	-1.711772525347889e-14	0
3.67	-44.00537437954166	615.924332825646	-30.44549821851916	1.343395551316101	0	-0.420893727390874	-0.01042955498191789	0.00353924221137227	8.889732591764832e-06	1.172135705789964	0	-0.5599249227791234	0	1.154421756328183	0	0	-3.855318740305941e-14	0
3.675	-42.21884399195444	606.8539645376291	-29.39787445255181	1.345263982042794	0	-0.4210809098603738	-0.01491008849395718	0.005010770005205475	1.537998569571973e-05	1.192275793160941	0	-0.5598279995231695	0	1.302406015389174	0	0	-9.104354639979939e-14	0
3.68	-40.57702482143074	598.5132171735958	-28.60501501699029	1.347137128438574	0	-0.421273264284072	-0.02183693033464893	0.007275792002233903	2.78513690452498e-05	1.21250965560404	0	-0.5597328292161514	0	1.445112923631818	0	0	-2.242832452419886e-13	0
3.685	-39.07694475832903	590.8259453321084	-28.03173249463899	1.349004499222802	0	-0.4214685634094724	-0.03252315335694063	0.01075382974715883	5.451866235537782e-05	1.232838639846145	0	-0.5596453569818022	0	1.579114690555876	0	0	-5.746416661739015e-13	0
3.69	-37.71211384001347	583.698482563114	-27.65557566550684	1.35085699000605	0	-0.4216657571274365	-0.04896081405809647	0.01608043505586378	0.0001113522674825147	1.25326313024056	0	-0.5595709361018797	0	1.70045027081882	0	0	-1.521207395075927e-12	0
3.695	-36.46099574766714	577.0822645102287	-27.4524195772671	1.352682803939429	0	-0.4218625599591716	-0.0740077395781939	0.02416191377836879	0.0002316695190072332	1.273787285380805	0	-0.5595165883757108	0	1.810107429133879	0	0	-4.141388349875735e-12	0
3.7	-35.28475607462662	571.0219829723167	-27.4001907502499	1.354470504937019	0	-0.4220557346991643	-0.11171219556739	0.03628001079808005	0.0004725745357840369	1.294414179118077	0	-0.5594872410930803	0	1.913151142554156	0	0	-1.151134428663964e-11	0
3.705	-34.11825204471967	565.5207847408569	-27.46867665975459	1.356210214474749	0	-0.4222418671764332	-0.1674809188300614	0.05413969891993502	0.0009343826867066992	1.315147022769019	0	-0.5594887603444095	0	2.007903448297853	0	0	-3.247938983735876e-11	0
3.71	-32.90507468140117	560.5292869128991	-27.63229110182831	1.357897998566039	0	-0.4224183593205001	-0.2482169889321423	0.07991346116131857	0.001783952802538955	1.335988475403205	0	-0.5595268331000215	0	2.089866020336359	0	0	-9.250989427625478e-11	0
3.715	-31.65800816532313	556.0476568989673	-27.86828202169689	1.359527233585112	0	-0.4225835849976784	-0.3620197975741603	0.1161397901409721	0.003287651634917683	1.35694161941225	0	-0.5596082513274327	0	2.154013499312306	0	0	-2.647715241499426e-10	0
3.72	-30.34005008021573	552.1242354987003	-28.13504580823743	1.361086288069284	0	-0.4227365258096217	-0.5183565942901374	0.1657774630351368	0.005868245805913094	1.378008887586603	0	-0.5597412931755262	0	2.19767237865608	0	0	-7.585012635341615e-10	0
3.725	-28.87639882165517	548.8684100778967	-28.4188686698981	1.362575992663696	0	-0.4228790051624956	-0.7270658535471508	0.2318802673726723	0.01016072283596368	1.399192202211106	0	-0.559935916159963	0	2.222848717964304	0	0	-2.167817486284362e-09	0
3.73	-27.29120243836763	546.3325188447424	-28.68599255972129	1.364000826423114	0	-0.4230127282630696	-0.9973526168060806	0.3173094859670502	0.01698733313741265	1.420490431894409	0	-0.5602007361594185	0	2.234252225769957	0	0	-6.157521284522183e-09	0
3.735	-25.58358633283253	544.5335670110306	-28.92655378245222	1.365365117283735	0	-0.4231395472431032	-1.335528742864832	0.4240325728607012	0.02734078648870502	1.441901031366106	0	-0.5605443089722985	0	2.23438769377907	0	0	-1.731441022501112e-08	0
3.74	-23.77268952138823	543.4850494042843	-29.10354966938778	1.366682434900722	0	-0.4232634725420313	-1.743350990119308	0.5526564228780758	0.04226809703210153	1.463416911414741	0	-0.5609734989206213	0	2.225538403016706	0	0	-4.79837811429018e-08	0
3.745	-21.89230478679341	543.2215035401963	-29.18948360561026	1.367967462108639	0	-0.4233886063851561	-2.215298782425226	0.7015749932277188	0.06271534399967482	1.48502921438832	0	-0.5614949040649698	0	2.209341339807729	0	0	-1.304480661129537e-07	0
3.75	-19.94436671866881	543.7240804515047	-29.16421199928581	1.369235717567143	0	-0.4235205119765126	-2.739380040377342	0.8672300373934093	0.08943320376746831	1.506725686811516	0	-0.5621149036502406	0	2.182089997070783	0	0	-3.460011165634658e-07	0
3.755	-17.91903703447983	544.9791682970906	-29.00144080271712	1.37050234716601	0	-0.4236638282250059	-3.294179917464677	1.043132786898281	0.1226979393078554	1.528493331881271	0	-0.5628404237708239	0	2.139464517217284	0	0	-8.903869416487797e-07	0
3.76	-15.80216806289924	546.9442929052436	-28.698945766522	1.371780575223737	0	-0.423820300242656	-3.852543401299005	1.221055524910428	0.1621774857402145	1.550316181368192	0	-0.5636797976540205	0	2.077481073557209	0	0	-2.209341203818216e-06	0
3.765	-13.56947875616	549.6132210596734	-28.27176642993947	1.373081955367822	0	-0.4239906757030538	-4.379988667733939	1.390406526836503	0.2065472244922243	1.57217583213018	0	-0.5646432494077088	0	1.989895212223075	0	0	-5.249679259577977e-06	0
3.77	-11.19328604150215	552.9570294628656	-27.74405253254852	1.374409591984719	0	-0.4241705636763933	-4.834106200997058	1.53797594033821	0.2531099387290404	1.594051466464166	0	-0.5657462952980745	0	1.875232883006689	0	0	-1.183614104571795e-05	0
3.775	-8.671069403223337	556.942724361742	-27.20970905845367	1.375767351704252	0	-0.4243596763257566	-5.16536083293808	1.648079966128104	0.2975681641516431	1.615916339640212	0	-0.5670133816471057	0	1.74299655963241	0	0	-2.506809545055333e-05	0
3.78	-6.033082800492414	561.5233950361961	-26.68607333161881	1.377157995677469	0	-0.4245584667112882	-5.316830338785306	1.702389659124958	0.334263677155154	1.637733587312819	0	-0.568490320004313	0	1.60075123673959	0	0	-4.933091421543967e-05	0
3.785	-3.303564646456103	566.6528438900723	-26.27762792502137	1.378583724249742	0	-0.4247705947360993	-5.232520406290838	1.682393530417607	0.3562467563137183	1.659443848014736	0	-0.5702544096285753	0	1.457477591161549	0	0	-8.897616905267913e-05	0
3.79	-0.5283021623225199	572.2886560625248	-26.03320123443655	1.38004594756616	0	-0.4249990806642113	-4.863403662305394	1.571309838985788	0.3561138156522859	1.680952823993384	0	-0.5724379281726316	0	1.320483408251668	0	0	-0.0001438209803610313	0
